<svg width="192" height="121" viewBox="0 0 192 121" fill="none" xmlns="http://www.w3.org/2000/svg">
<path d="M87.9214 19.4928C87.9214 19.4928 95.9151 121.492 81.2068 119.893C81.2068 119.893 45.3953 125.009 23.6526 112.539C-8.64171 93.6738 -13.7576 21.0916 46.0348 2.86606C57.8654 -0.970887 89.8399 1.90683 87.9214 19.4928Z" fill="#FFDD67"/>
<path d="M73.2065 38.9976C65.8523 38.9976 59.7771 32.9224 59.7771 25.5682C59.7771 18.2141 65.8523 12.1389 73.2065 12.1389H178.403C185.757 12.1389 191.832 18.2141 191.832 25.5682C191.832 32.9224 185.757 38.9976 178.403 38.9976H73.2065Z" fill="#FFDD67"/>
<path d="M62.9701 31.6426C62.9701 23.9687 69.0453 17.8936 76.3994 17.8936H181.596C185.433 17.8936 189.27 19.8121 191.508 22.37C190.229 16.2949 184.793 11.4987 178.398 11.4987H73.202C65.8478 11.4987 59.7727 17.5738 59.7727 24.928C59.7727 28.4452 61.0516 31.3229 62.9701 33.8809V31.6426Z" fill="#EBA352"/>
<path d="M102.31 119.892C109.983 119.892 116.059 113.817 116.059 106.463V106.143C116.059 98.7889 109.983 92.7137 102.31 92.7137H81.2063C73.5325 92.7137 67.4573 98.7889 67.4573 106.143V106.463C67.4573 113.817 73.5325 119.892 81.2063 119.892H102.31Z" fill="#FFDD67"/>
<path d="M114.461 92.7139C122.135 92.7139 128.21 86.6387 128.21 79.2846V78.9648C128.21 71.6107 122.135 65.5355 114.461 65.5355H93.3576C85.6837 65.5355 79.6086 71.6107 79.6086 78.9648V79.2846C79.6086 86.6387 85.6837 92.7139 93.3576 92.7139H114.461ZM116.06 65.5355C123.733 65.5355 129.809 59.4603 129.809 52.1062V51.7864C129.809 44.4323 123.733 38.3571 116.06 38.3571H94.9563C87.2824 38.3571 81.2073 44.4323 81.2073 51.7864V52.1062C81.2073 59.4603 87.2824 65.5355 94.9563 65.5355H116.06Z" fill="#FFDD67"/>
<path d="M72.5724 109.98C72.5724 102.306 78.6476 96.5508 86.0017 96.5508H107.105C109.023 96.5508 110.942 96.8705 112.86 97.8297C110.302 94.6323 106.465 92.3941 101.989 92.3941H80.8858C73.2119 92.3941 67.4565 98.1495 67.4565 105.823V106.143C67.4565 111.579 70.6539 116.375 75.4501 118.293C73.5316 116.055 72.5724 113.178 72.5724 109.98ZM84.7227 83.1215C84.7227 75.4476 90.7979 69.6921 98.152 69.6921H119.255C121.174 69.6921 123.092 70.0119 125.011 70.9711C122.453 67.7737 118.616 65.5355 114.139 65.5355H93.0361C85.3622 65.5355 79.6068 71.6106 79.6068 78.9648V79.2845C79.6068 84.7202 82.8042 89.5164 87.6004 91.4348C85.682 89.1966 84.7227 86.3189 84.7227 83.1215ZM86.3214 56.2628C86.3214 48.5889 92.3966 42.8335 99.7508 42.8335H120.854C122.772 42.8335 124.691 43.1533 126.609 44.1125C124.051 40.9151 120.214 38.6768 115.738 38.6768H94.6348C86.9609 38.6768 81.2055 44.752 81.2055 52.1061V52.4259C81.2055 57.8616 84.403 62.6577 89.1992 64.5762C87.2807 62.0182 86.3214 59.1405 86.3214 56.2628ZM67.7762 31.6424C75.1304 46.9902 62.3405 81.8425 30.366 74.8081C63.6195 74.8081 69.3749 44.752 67.7762 31.6424Z" fill="#EBA352"/>
<path d="M100.715 37.3973C107.429 48.5884 96.8778 50.5069 96.2383 69.3719C95.9186 77.6852 78.972 81.2024 72.8969 68.7324C64.2638 51.4661 76.4141 50.1871 71.6179 45.7107C66.502 41.2343 65.5427 37.0776 59.7873 33.2406C55.6306 30.3629 62.0255 8.93996 70.6587 6.70174C87.6052 2.54505 90.1631 19.8113 100.715 37.3973Z" fill="#EBA352"/>
<path d="M97.828 36.1187C104.543 47.6296 93.9911 49.8678 93.3516 69.3722C93.0318 78.0054 75.4458 81.8423 69.0509 68.7328C60.0981 50.827 72.8879 49.2283 67.772 45.0716C62.656 40.2754 61.377 36.1187 55.3019 31.962C50.8254 29.0843 34.1987 36.7582 34.1987 36.7582C34.1987 36.7582 18.5311 14.6958 27.484 10.2193C44.1108 1.90595 56.9006 4.14417 66.493 4.46392C89.1949 5.10341 86.9567 17.8932 97.828 36.1187Z" fill="#FFDD67"/>
<path d="M86.6406 13.7369C80.8852 1.58653 49.2304 2.22601 33.8826 11.1789C-4.1671 33.8808 -3.52761 83.7611 16.9361 107.103C-6.40532 85.3598 -8.64354 32.2821 30.6852 7.66169C46.3527 -1.93068 82.8037 -5.12813 86.6406 13.7369Z" fill="#EBA352"/>
<path d="M54.9803 34.5206C53.7013 33.5613 51.1433 33.8811 48.2656 34.2008C52.7421 32.9218 57.2185 31.9626 59.137 33.2416C65.2121 37.0785 66.4911 39.3168 71.607 44.1129C76.4032 48.5894 63.9331 49.8684 72.886 67.7741C76.0835 74.4888 82.4784 76.727 87.9141 76.0875C82.1586 78.6454 73.2058 77.3665 68.7293 68.7333C59.7765 50.8276 72.5663 49.2289 67.4503 45.0722C62.3344 40.5957 61.0554 38.3575 54.9803 34.5206Z" fill="#EBA352"/>
</svg>
